<?xml version="1.0" standalone="no"?>
<!DOCTYPE svg PUBLIC "-//W3C//DTD SVG 20010904//EN"
 "http://www.w3.org/TR/2001/REC-SVG-20010904/DTD/svg10.dtd">
<svg version="1.0" xmlns="http://www.w3.org/2000/svg"
 width="250.000000pt" height="250.000000pt" viewBox="0 0 250.000000 250.000000"
 preserveAspectRatio="xMidYMid meet">

<g transform="translate(0.000000,250.000000) scale(0.100000,-0.100000)"
fill="#4762fc" stroke="none">
<path d="M1020 2389 c-224 -48 -405 -146 -579 -314 -581 -561 -429 -1534 297
-1899 373 -188 824 -162 1177 68 497 324 674 979 410 1511 -154 310 -428 533
-763 622 -83 22 -123 26 -272 29 -147 3 -190 0 -270 -17z m485 -108 c44 -11
92 -24 108 -30 l27 -11 0 -277 0 -277 -332 -333 c-183 -183 -336 -333 -340
-333 -5 0 -8 279 -8 620 l0 620 28 11 c107 41 370 46 517 10z m-655 -734 c0
-593 2 -675 16 -695 l15 -22 690 0 c379 0 689 -3 689 -6 0 -3 -20 -45 -45 -92
-153 -296 -426 -494 -764 -558 -117 -22 -334 -15 -445 15 -354 94 -630 346
-752 686 -178 500 39 1057 510 1307 39 21 74 38 79 38 4 0 7 -303 7 -673z
m959 612 c130 -74 276 -213 360 -344 28 -44 51 -83 51 -87 0 -5 -108 -8 -240
-8 l-240 0 0 235 c0 129 3 235 7 235 3 0 31 -14 62 -31z m490 -629 c32 -117
41 -182 41 -295 0 -98 -11 -193 -31 -267 l-10 -38 -624 0 c-344 0 -625 3 -625
7 0 5 150 158 332 340 l333 333 281 0 282 0 21 -80z"/>
</g>
</svg>
